<svg width="210" height="55" viewBox="0 0 210 55" fill="none" xmlns="http://www.w3.org/2000/svg">
<path d="M54.1909 15.712H54.1871L50.798 17.6789L44.0275 21.605L40.6422 23.5719L37.2531 25.535L33.8679 27.5018H33.8641L23.7083 33.391L20.3192 35.3579L16.9339 37.321L13.5449 39.284L10.1596 41.2509L6.77434 43.214L3.38908 45.177L0 47.1401V39.284L3.38908 37.321L6.77434 35.3579L10.1596 33.3948L13.5449 31.428L16.9339 29.4649L20.3192 27.5018L23.7083 25.535L30.4788 21.6088L33.8679 19.642L37.2531 17.6789L40.6422 15.7158L44.0275 13.749L47.4165 11.7859L50.798 9.82285L54.1871 7.85596L54.1909 15.712Z" fill="white"/>
<path d="M50.7967 21.605V41.2509L47.4152 43.2139L44.0262 45.1808L40.6409 47.1439L37.2518 49.1069L33.8666 51.07L30.4775 53.0369L27.0922 54.9999L23.707 53.0369L20.3179 51.07L16.9326 49.1069L13.5474 47.1439L10.1621 45.177L16.9326 41.2509L20.3179 43.2139L23.707 45.1808L27.0922 47.1439L30.4775 45.1808L33.8666 43.2139L37.2518 41.2509L40.6409 39.284L44.0262 37.3209V25.5311L50.7967 21.605Z" fill="white"/>
<path d="M44.0271 9.81911L37.2527 13.7491L33.8675 11.786L30.4784 9.81911L27.0931 7.85605L23.7079 9.81911L20.3188 11.786L16.9335 13.7491L13.5445 15.7159L10.1592 17.679V29.4688L3.38867 33.3949V13.7491L6.77393 11.786L10.1592 9.82294L13.5483 7.85605L16.9335 5.893L20.3188 3.92994L23.7079 1.96305L27.0931 0L30.4784 1.96305L33.8675 3.92994L37.2527 5.893L40.6418 7.85605L44.0271 9.81911Z" fill="white"/>
<path d="M76.7541 24.2027V19.896H89.0191C89.5103 19.896 89.9263 19.8207 90.2621 19.66C90.598 19.5044 90.7684 19.1731 90.7684 18.6612C90.7684 18.1492 90.598 17.7978 90.2621 17.6522C89.9263 17.5067 89.5103 17.4314 89.0191 17.4314H77.145V28.2635H71V12.5122H88.0567C89.2848 12.5122 90.4376 12.5975 91.5102 12.7682C92.5828 12.9389 93.5201 13.2501 94.3271 13.6918C95.1291 14.1335 95.7606 14.761 96.2217 15.5641C96.6778 16.3672 96.9084 17.4012 96.9084 18.6662C96.9084 19.9311 96.6778 20.93 96.2217 21.6679C95.7606 22.4057 95.1341 22.9579 94.3271 23.3193C93.5251 23.6807 92.5878 23.9166 91.5102 24.0321C90.4376 24.1475 89.2848 24.2027 88.0567 24.2027H76.7541Z" fill="white"/>
<path d="M99.9805 12.5122H106.126V28.2635H99.9805V12.5122ZM105.238 17.9534H122.541V22.6316H105.238V17.9534ZM121.854 12.5122H127.999V28.2635H121.854V12.5122Z" fill="white"/>
<path d="M129.966 28.2635L140.512 12.5122H147.343L157.985 28.2635H151.223L142.106 14.1586H145.77L136.722 28.2635H129.961H129.966ZM135.469 25.8742V22.1799H152.281V25.8742H135.469Z" fill="white"/>
<path d="M158.354 22.4808H165.065C165.18 22.8272 165.516 23.1183 166.072 23.3542C166.629 23.5901 167.381 23.7708 168.323 23.8963C169.265 24.0218 170.358 24.082 171.606 24.082C172.854 24.082 173.806 24.0469 174.518 23.9716C175.23 23.8963 175.736 23.7658 176.032 23.5801C176.328 23.3894 176.473 23.1334 176.473 22.8071C176.473 22.4808 176.237 22.2549 175.761 22.0792C175.285 21.9086 174.443 21.7881 173.23 21.7229C172.017 21.6576 170.313 21.6225 168.117 21.6225C166.478 21.6225 165.065 21.5472 163.877 21.3866C162.689 21.231 161.712 20.985 160.95 20.6487C160.188 20.3124 159.627 19.8857 159.266 19.3687C158.905 18.8517 158.724 18.2343 158.724 17.5115C158.724 16.2666 159.145 15.2326 159.993 14.4244C160.835 13.6113 162.113 13.0039 163.827 12.6024C165.541 12.2008 167.681 12 170.253 12C174.022 12 176.904 12.5471 178.894 13.6364C180.884 14.7256 181.881 16.2967 181.881 18.3497H175.516C175.435 17.8076 174.924 17.396 173.992 17.1049C173.06 16.8188 171.731 16.6732 170.012 16.6732C168.293 16.6732 167.04 16.7736 166.213 16.9694C165.386 17.1651 164.97 17.5014 164.97 17.9783C164.97 18.2242 165.085 18.42 165.316 18.5706C165.546 18.7162 165.942 18.8366 166.508 18.927C167.075 19.0173 167.872 19.0776 168.904 19.1127C169.937 19.1478 171.25 19.1629 172.839 19.1629C174.593 19.1629 176.082 19.2482 177.315 19.4189C178.543 19.5896 179.54 19.8506 180.302 20.1919C181.064 20.5383 181.615 20.9749 181.961 21.507C182.307 22.0391 182.478 22.6665 182.478 23.3893C182.478 24.6392 182.087 25.6532 181.3 26.4412C180.513 27.2293 179.27 27.8116 177.566 28.188C175.861 28.5645 173.631 28.7552 170.879 28.7552C169.32 28.7552 167.892 28.6649 166.589 28.4842C165.285 28.3035 164.128 28.0374 163.11 27.6861C162.093 27.3347 161.236 26.898 160.529 26.381C159.822 25.864 159.286 25.2817 158.92 24.6342C158.549 23.9867 158.369 23.2689 158.369 22.4808H158.354Z" fill="white"/>
<path d="M191.315 21.6177V23.5853H209.996V28.2635H185.17V12.5122H209.946V17.1904H191.315V19.1581H206.552V21.6177H191.315Z" fill="white"/>
<path d="M72.0927 40.6821V39.5377H75.2053C75.7216 39.5377 76.1326 39.3821 76.4483 39.0759C76.7641 38.7697 76.9195 38.3631 76.9195 37.8561C76.9195 37.3491 76.7641 36.9225 76.4483 36.6213C76.1326 36.3252 75.7165 36.1746 75.2053 36.1746H72.3032V43.6487H71V35H75.1502C75.5762 35 75.9772 35.0602 76.3481 35.1807C76.719 35.3012 77.0448 35.4819 77.3255 35.7228C77.6062 35.9638 77.8217 36.2599 77.9771 36.6163C78.1325 36.9727 78.2076 37.3843 78.2076 37.8561C78.2076 38.328 78.1274 38.7396 77.9771 39.0909C77.8267 39.4423 77.6062 39.7334 77.3255 39.9693C77.0448 40.2053 76.719 40.381 76.3481 40.5014C75.9772 40.6219 75.5762 40.6821 75.1502 40.6821H72.0927Z" fill="white"/>
<path d="M89.1886 43.6536V35.0049H93.6846C94.3061 35.0049 94.8424 35.0952 95.2885 35.2759C95.7346 35.4566 96.0805 35.7377 96.3261 36.1092C96.5717 36.4806 96.692 36.9525 96.692 37.5197C96.692 37.9012 96.6268 38.2274 96.5015 38.4985C96.3712 38.7695 96.1958 38.9954 95.9702 39.1761C95.7447 39.3568 95.479 39.4974 95.1783 39.5978C94.8775 39.6931 94.5517 39.7584 94.2059 39.7835L94.1107 39.7032C94.6319 39.7132 95.073 39.7634 95.4289 39.8638C95.7848 39.9592 96.0554 40.1349 96.2459 40.3909C96.4363 40.6418 96.5316 41.0233 96.5316 41.5303V43.6485H95.2384V41.5704C95.2384 41.2241 95.1783 40.953 95.058 40.7573C94.9377 40.5615 94.7372 40.426 94.4515 40.3457C94.1658 40.2654 93.7698 40.2252 93.2536 40.2252H90.4868V43.6485H89.1836L89.1886 43.6536ZM90.4918 39.0958H93.6846C94.251 39.0958 94.677 38.9553 94.9627 38.6692C95.2484 38.383 95.3888 38.0116 95.3888 37.5498C95.3888 37.088 95.2484 36.7667 94.9627 36.5308C94.677 36.2949 94.251 36.1795 93.6846 36.1795H90.4918V39.0958Z" fill="white"/>
<path d="M112.141 43.7993C111.229 43.7993 110.422 43.6186 109.725 43.2522C109.028 42.8858 108.482 42.3738 108.081 41.7062C107.68 41.0386 107.484 40.2505 107.484 39.3319C107.484 38.4133 107.685 37.6152 108.081 36.9476C108.482 36.28 109.028 35.768 109.725 35.4016C110.422 35.0352 111.229 34.8545 112.141 34.8545C113.053 34.8545 113.85 35.0352 114.547 35.4016C115.248 35.768 115.795 36.28 116.191 36.9476C116.587 37.6152 116.782 38.4083 116.782 39.3319C116.782 40.2555 116.587 41.0386 116.191 41.7062C115.795 42.3738 115.248 42.8858 114.547 43.2522C113.845 43.6186 113.043 43.7993 112.141 43.7993ZM112.141 42.6247C112.777 42.6247 113.349 42.4993 113.845 42.2533C114.341 42.0023 114.737 41.6359 115.028 41.149C115.319 40.6621 115.469 40.0547 115.469 39.3369C115.469 38.6191 115.324 38.0017 115.028 37.5199C114.737 37.038 114.341 36.6665 113.845 36.4156C113.349 36.1646 112.782 36.0341 112.141 36.0341C111.499 36.0341 110.943 36.1596 110.437 36.4156C109.93 36.6716 109.529 37.038 109.239 37.5199C108.948 38.0017 108.798 38.6091 108.798 39.3369C108.798 40.0648 108.943 40.6621 109.239 41.149C109.529 41.6359 109.93 42.0073 110.437 42.2533C110.943 42.5043 111.509 42.6247 112.141 42.6247Z" fill="white"/>
<path d="M126.742 35.0049H134.381V36.1644H126.742V35.0049ZM129.91 36.0289H131.213V43.6536H129.91V36.0289Z" fill="white"/>
<path d="M148.574 43.7993C147.662 43.7993 146.855 43.6186 146.158 43.2522C145.462 42.8858 144.915 42.3738 144.514 41.7062C144.113 41.0386 143.918 40.2505 143.918 39.3319C143.918 38.4133 144.118 37.6152 144.514 36.9476C144.915 36.28 145.462 35.768 146.158 35.4016C146.855 35.0352 147.662 34.8545 148.574 34.8545C149.487 34.8545 150.284 35.0352 150.98 35.4016C151.682 35.768 152.228 36.28 152.624 36.9476C153.02 37.6152 153.216 38.4083 153.216 39.3319C153.216 40.2555 153.02 41.0386 152.624 41.7062C152.228 42.3738 151.682 42.8858 150.98 43.2522C150.279 43.6186 149.477 43.7993 148.574 43.7993ZM148.574 42.6247C149.211 42.6247 149.782 42.4993 150.279 42.2533C150.775 42.0023 151.171 41.6359 151.461 41.149C151.752 40.6621 151.903 40.0547 151.903 39.3369C151.903 38.6191 151.757 38.0017 151.461 37.5199C151.171 37.038 150.775 36.6665 150.279 36.4156C149.782 36.1646 149.216 36.0341 148.574 36.0341C147.933 36.0341 147.376 36.1596 146.87 36.4156C146.364 36.6716 145.963 37.038 145.672 37.5199C145.382 38.0017 145.231 38.6091 145.231 39.3369C145.231 40.0648 145.377 40.6621 145.672 41.149C145.963 41.6359 146.364 42.0073 146.87 42.2533C147.376 42.5043 147.943 42.6247 148.574 42.6247Z" fill="white"/>
<path d="M172.569 40.697C172.489 41.3345 172.268 41.8916 171.902 42.3584C171.536 42.8253 171.07 43.1816 170.494 43.4326C169.917 43.6836 169.251 43.8041 168.499 43.8041C167.832 43.8041 167.221 43.7037 166.664 43.5029C166.108 43.3021 165.622 43.011 165.206 42.6245C164.795 42.238 164.474 41.7712 164.238 41.219C164.008 40.6669 163.893 40.0444 163.893 39.3417C163.893 38.639 164.008 38.0115 164.238 37.4644C164.469 36.9122 164.79 36.4454 165.206 36.0589C165.617 35.6724 166.103 35.3763 166.664 35.1705C167.226 34.9646 167.837 34.8643 168.499 34.8643C169.251 34.8643 169.922 34.9898 170.504 35.2457C171.085 35.4967 171.556 35.8581 171.922 36.3249C172.288 36.7918 172.509 37.354 172.589 38.0115H171.351C171.226 37.5949 171.03 37.2385 170.764 36.9474C170.499 36.6562 170.173 36.4304 169.792 36.2747C169.411 36.1191 168.98 36.0439 168.499 36.0439C167.897 36.0439 167.346 36.1693 166.85 36.4253C166.354 36.6763 165.958 37.0528 165.657 37.5447C165.361 38.0366 165.211 38.639 165.211 39.3517C165.211 40.0645 165.361 40.6618 165.657 41.1487C165.953 41.6356 166.349 42.0071 166.85 42.2631C167.346 42.514 167.897 42.6446 168.499 42.6446C168.98 42.6446 169.406 42.5693 169.782 42.4187C170.158 42.2681 170.479 42.0472 170.749 41.7611C171.015 41.475 171.21 41.1236 171.336 40.717H172.574L172.569 40.697Z" fill="white"/>
<path d="M187.91 43.7993C186.998 43.7993 186.191 43.6186 185.494 43.2522C184.798 42.8858 184.251 42.3738 183.85 41.7062C183.449 41.0386 183.254 40.2505 183.254 39.3319C183.254 38.4133 183.454 37.6152 183.85 36.9476C184.251 36.28 184.798 35.768 185.494 35.4016C186.191 35.0352 186.998 34.8545 187.91 34.8545C188.823 34.8545 189.619 35.0352 190.316 35.4016C191.018 35.768 191.564 36.28 191.96 36.9476C192.356 37.6152 192.552 38.4083 192.552 39.3319C192.552 40.2555 192.356 41.0386 191.96 41.7062C191.564 42.3738 191.018 42.8858 190.316 43.2522C189.614 43.6186 188.813 43.7993 187.91 43.7993ZM187.91 42.6247C188.547 42.6247 189.118 42.4993 189.614 42.2533C190.111 42.0023 190.507 41.6359 190.797 41.149C191.088 40.6621 191.238 40.0547 191.238 39.3369C191.238 38.6191 191.093 38.0017 190.797 37.5199C190.507 37.038 190.111 36.6665 189.614 36.4156C189.118 36.1646 188.552 36.0341 187.91 36.0341C187.269 36.0341 186.712 36.1596 186.206 36.4156C185.7 36.6716 185.299 37.038 185.008 37.5199C184.717 38.0017 184.567 38.6091 184.567 39.3369C184.567 40.0648 184.712 40.6621 185.008 41.149C185.299 41.6359 185.7 42.0073 186.206 42.2533C186.712 42.5043 187.279 42.6247 187.91 42.6247Z" fill="white"/>
<path d="M204.903 35.0049V42.494H210V43.6536H203.6V35.0049H204.903Z" fill="white"/>
</svg>
