<svg width="127" height="40" fill="none" xmlns="http://www.w3.org/2000/svg">
    <path
        _ngcontent-rbe-c103=""
        id="sudoText"
        d="M24 27.2c-1.2 0-2.1-.3-2.9-.8-.7-.5-1-1.3-1-2.2h2c0 .4.1.7.5 1 .3.2.8.3 1.4.3h.9a3 3 0 0 0 1.5-.4c.3-.3.5-.7.5-1.1 0-.5-.2-.8-.5-1.1a3 3 0 0 0-1.3-.5l-1.5-.3c-2.2-.3-3.3-1.4-3.3-3.1a3 3 0 0 1 1-2.4c.6-.5 1.6-.8 2.8-.8h.8c1.1 0 2 .3 2.8.8.6.5 1 1.2 1 2h-2c0-.3-.2-.6-.5-.8-.3-.2-.8-.3-1.3-.3H24c-.6 0-1 .2-1.4.4-.3.3-.5.6-.5 1 0 .8.6 1.3 1.7 1.5l1.5.2c1 0 1.8.4 2.6 1 .6.6.8 1.3.8 2.3a3 3 0 0 1-1 2.4c-.7.6-1.7.9-3 .9zm11.5 0c-1.3 0-2.3-.4-3.1-1.1-.8-.8-1.3-2-1.2-3.1v-7h2v7c0 .8.2 1.4.6 1.8a2.4 2.4 0 0 0 3.4 0c.4-.4.6-1 .6-1.8v-7h2v7c0 1.3-.4 2.3-1.2 3-.7.8-1.8 1.2-3.1 1.2zm10.5 0c-1.1 0-2-.4-2.7-1.1-.6-.7-1-1.8-1-3v-3.2a5 5 0 0 1 1-3c.7-.7 1.6-1.1 2.7-1.1a3 3 0 0 1 2 .6c.5.4.8 1 1 1.7v-5.7h2V27h-2v-2c-.2.6-.5 1.2-1 1.6-.5.4-1.2.6-2 .6zm.7-1.7c.7 0 1.2-.2 1.7-.7.4-.4.6-1 .6-1.8v-3c0-.8-.2-1.4-.6-1.8-.5-.5-1-.7-1.7-.7-.8 0-1.3.2-1.8.7-.4.4-.6 1-.6 1.8v3c0 .8.2 1.4.6 1.8.5.5 1 .7 1.8.7zm11.2 1.7c-1.3 0-2.4-.4-3.2-1.2a4.1 4.1 0 0 1-1.2-3v-3a4 4 0 0 1 1.2-3c.8-.8 1.9-1.2 3.2-1.2 1.4 0 2.4.4 3.2 1.2a4 4 0 0 1 1.2 3v3a4 4 0 0 1-1.2 3c-.8.8-1.8 1.2-3.2 1.2zm0-1.8c.8 0 1.3-.2 1.8-.6.4-.4.6-1 .6-1.9v-2.8c0-.9-.2-1.5-.6-1.9-.5-.4-1-.6-1.8-.6-.7 0-1.3.2-1.8.6-.4.4-.6 1-.6 1.9v2.8c0 .9.2 1.5.6 1.9.5.4 1 .6 1.8.6zm10.8 1.8c-1.1 0-2-.3-2.8-.8a2.6 2.6 0 0 1-1.1-2.2h2c0 .4.2.7.5 1 .4.2.9.3 1.5.3h.8c.7 0 1.2-.2 1.6-.4.3-.3.5-.7.5-1.1 0-.5-.2-.8-.5-1.1a3 3 0 0 0-1.4-.5l-1.5-.3c-2.2-.3-3.3-1.4-3.3-3.1 0-1 .4-1.8 1-2.4a5 5 0 0 1 2.9-.8h.8c1.1 0 2 .3 2.7.8.7.5 1 1.2 1 2h-2c0-.3-.1-.6-.5-.8-.3-.2-.7-.3-1.3-.3H69c-.7 0-1.1.2-1.4.4-.4.3-.5.6-.5 1 0 .8.5 1.3 1.6 1.5l1.5.2c1 0 2 .4 2.7 1 .5.6.8 1.3.8 2.3a3 3 0 0 1-1 2.4c-.7.6-1.7.9-3 .9h-.9zm8-.2-1.8-11h1.7l1 7.5.3 2 .3-2 1.2-7.5h1.8l1.2 7.5.3 2 .3-2 1-7.5h1.7l-1.8 11h-2.2l-1.1-7.4-.3-2c0 .7-.2 1.3-.3 2L78.8 27Zm13.8.2c-1 0-2-.3-2.8-.9-.6-.6-1-1.4-1-2.4a3 3 0 0 1 1-2.4c.8-.6 1.7-1 2.9-1h3.2v-1a2 2 0 0 0-.6-1.5c-.4-.3-1-.5-1.6-.5-.7 0-1.2.1-1.6.4-.4.3-.7.6-.8 1h-2c.1-.6.4-1.1.7-1.6.4-.5 1-.8 1.6-1.1.6-.3 1.3-.4 2-.4 1.4 0 2.4.3 3.1 1 .8.7 1.2 1.5 1.2 2.7V27h-2v-2c0 .7-.4 1.2-1 1.6a4 4 0 0 1-2.3.6zm.5-1.5c.8 0 1.5-.2 2-.6.5-.5.8-1 .8-1.6V22h-3.2a2 2 0 0 0-1.4.5c-.3.3-.5.7-.5 1.3 0 .6.2 1 .6 1.4.4.3 1 .5 1.7.5zm7.5 4.9V16h2v2c0-.6.4-1.2 1-1.6a3 3 0 0 1 2-.6c1 0 2 .4 2.6 1.1a5 5 0 0 1 1 3v3.2c0 1.2-.4 2.3-1 3-.7.7-1.6 1.1-2.7 1.1-.8 0-1.4-.2-2-.6-.5-.4-.8-1-1-1.7v5.7h-2zm4.3-5.1c.7 0 1.3-.2 1.7-.7.4-.4.6-1 .6-1.8v-3c0-.8-.2-1.4-.6-1.8-.4-.5-1-.7-1.7-.7-.8 0-1.3.2-1.7.7-.5.4-.7 1-.7 1.8v3c0 .8.2 1.4.7 1.8.4.5 1 .7 1.7.7z"
        fill="#000"
    ></path>

    <path
        _ngcontent-rbe-c103=""
        d="m 10,12.238674 h 2.3 l 2.7,7.5 -2.8,7.5 h -2.2 l 2.8,-7.5 z"
        id="leftArrow"
        style="fill: #000"
    ></path>
    <path
        _ngcontent-rbe-c103=""
        d="m 117.11295,12.238674 h -2.3 l -2.7,7.5 2.8,7.5 h 2.2 l -2.8,-7.5 z"
        id="rightArrow"
        style="fill: #000"
    ></path>
</svg>
